<svg version="1.1" id="Layer_1" xmlns="http://www.w3.org/2000/svg" xmlns:xlink="http://www.w3.org/1999/xlink" x="0px" y="0px"
	 width="100%" viewBox="0 0 784 384" enable-background="new 0 0 784 384" xml:space="preserve">
<path fill="#000000" opacity="1.000000" stroke="none" 
	d="
M131.087860,324.969727 
	C95.202393,293.085236 82.386185,252.338715 83.584915,205.085266 
	C77.603378,213.417969 73.799767,222.040009 69.056229,230.090073 
	C65.678619,235.822052 62.915016,241.912460 59.687500,247.737686 
	C58.065578,250.665039 57.990250,253.304626 59.692120,256.179291 
	C71.718498,276.493195 54.962238,299.482086 31.865242,297.371429 
	C21.772430,296.449127 10.568847,285.773834 8.645174,275.431366 
	C4.777841,254.638947 23.250023,239.496338 40.408569,241.807861 
	C43.462643,242.219284 45.009216,241.563553 46.050652,238.646286 
	C52.762581,219.844849 63.694984,203.237640 73.570503,186.082657 
	C73.985847,185.361145 74.463310,184.675598 74.887009,183.958633 
	C78.707184,177.494293 78.705551,177.493332 73.157288,172.432297 
	C67.842590,167.584305 66.361984,161.030289 69.716301,153.761795 
	C73.477005,145.612732 77.587479,137.605637 81.938339,129.754303 
	C85.679688,123.002876 91.243340,121.501915 98.469902,124.613899 
	C104.909981,127.387199 104.868889,127.368828 107.790962,120.832077 
	C117.307976,99.542198 127.346001,78.507942 139.162613,58.378265 
	C140.703537,55.753296 140.164078,53.973736 138.639633,51.624584 
	C129.046890,36.842239 133.689423,20.378531 149.456772,12.730456 
	C158.406418,8.389365 170.956421,10.285795 178.420258,17.107115 
	C186.925919,24.880548 189.843292,36.217915 185.898285,46.168079 
	C181.786530,56.538860 171.895554,64.071190 161.249008,63.113277 
	C154.780655,62.531288 153.016907,65.210289 150.846909,70.302795 
	C145.629852,82.546097 139.622742,94.452682 133.940598,106.498047 
	C133.604172,107.211243 133.322739,107.950363 132.497147,109.905342 
	C153.349777,89.012543 177.744690,77.580505 204.857620,71.364273 
	C224.404037,66.882828 243.822113,68.337769 263.053772,73.137939 
	C266.711792,74.050987 268.657410,73.630867 269.885437,70.069290 
	C273.141754,60.625256 283.158936,58.362961 291.227753,62.982796 
	C298.304535,67.034630 305.632446,70.645233 312.772522,74.589935 
	C320.181549,78.683220 322.431274,84.601540 318.999084,92.146439 
	C315.071533,100.780289 310.805573,109.271225 306.388794,117.667549 
	C303.553680,123.057076 297.723450,125.430984 291.967865,123.355057 
	C281.940552,119.738388 272.375641,114.968636 263.059601,109.839378 
	C256.762024,106.372017 255.115051,99.564545 257.924622,92.936134 
	C258.432770,91.737289 259.315308,90.648582 259.060150,89.225456 
	C216.376099,75.648354 162.581223,96.130470 128.487900,137.602585 
	C135.556107,145.456833 134.325302,153.682678 129.330688,162.189285 
	C126.129631,167.641159 123.432983,173.387268 120.444046,178.966034 
	C116.350533,186.606445 112.420052,188.514465 103.806808,187.203201 
	C103.190910,187.109451 102.548340,187.190933 101.857933,187.190933 
	C95.097893,240.415482 108.164192,285.958801 152.197968,320.101227 
	C154.395203,318.321106 154.921875,315.379333 156.375351,313.061188 
	C160.711502,306.145538 166.947922,303.807709 174.292252,307.223663 
	C183.947281,311.714325 193.446976,316.551300 202.904190,321.450287 
	C208.479706,324.338501 211.203278,331.844604 208.456680,337.880707 
	C204.322617,346.965912 199.889191,355.947021 195.007294,364.649414 
	C191.262527,371.324738 183.016876,373.825348 175.941620,370.656097 
	C166.683090,366.508881 157.584183,361.981873 148.567108,357.326752 
	C141.729370,353.796753 139.277573,346.490662 142.867432,339.477356 
	C144.812103,335.678101 143.897003,333.917511 140.648987,331.940002 
	C137.393250,329.957733 134.448822,327.464203 131.087860,324.969727 
M178.612518,326.996521 
	C175.816650,325.603088 173.020798,324.209625 169.912949,322.660675 
	C165.315063,329.767029 162.118118,337.292389 158.079132,344.964966 
	C165.593353,348.498352 172.461075,351.719696 179.320526,354.958557 
	C181.195694,355.843994 182.048904,354.736816 182.805237,353.293121 
	C185.573074,348.009735 188.346451,342.729156 191.143784,337.461365 
	C192.516525,334.876282 191.921097,333.193329 189.152985,332.016449 
	C185.803299,330.592377 182.571060,328.891998 178.612518,326.996521 
M115.666740,149.504776 
	C108.880943,146.483337 102.095146,143.461899 95.023338,140.313110 
	C91.371063,146.043121 88.000145,151.499985 85.430168,157.449188 
	C84.241997,160.199692 85.120728,161.576630 87.673141,162.861038 
	C93.042404,165.562912 98.840477,167.063187 104.382828,169.262787 
	C105.951447,169.885345 107.593887,169.803070 108.172829,168.078217 
	C110.277115,161.808884 114.883652,156.647964 115.666740,149.504776 
M43.342331,279.915588 
	C47.554577,276.293579 49.840672,272.053467 47.898666,266.336517 
	C46.128510,261.125397 42.678288,257.917969 37.133678,257.395325 
	C31.739162,256.886871 26.724245,260.088959 24.459261,265.202209 
	C22.343096,269.979523 23.320131,274.329956 27.400229,278.297516 
	C31.956575,282.728180 36.294579,283.301605 43.342331,279.915588 
M281.522766,82.124779 
	C278.956055,87.313850 276.389343,92.502922 273.606567,98.128883 
	C279.889801,100.908676 285.782623,103.515114 291.674835,106.122963 
	C293.226318,106.809639 294.256226,106.140091 294.937622,104.789108 
	C297.768738,99.176071 300.572113,93.549072 303.582611,87.533730 
	C296.918488,84.124939 290.752991,80.971214 284.720306,77.885414 
	C282.912170,78.652611 282.615234,80.252556 281.522766,82.124779 
M170.076614,43.490707 
	C171.279556,41.140453 172.898697,38.898182 172.458267,36.050892 
	C171.668610,30.946051 166.576309,25.993803 161.727158,25.528996 
	C156.926041,25.068792 151.127182,29.334707 149.698090,34.378124 
	C148.349747,39.136608 150.958221,44.152985 156.283737,47.043030 
	C161.124023,49.669746 163.896881,49.049133 170.076614,43.490707 
z"/>
<path fill="#000000" opacity="1.000000" stroke="none" 
	d="
M749.888672,199.993073 
	C755.104858,202.329346 759.754883,204.915726 764.143127,207.955688 
	C783.574402,221.416870 780.215027,254.734207 766.192993,265.222931 
	C755.133057,273.496063 742.655884,275.648041 729.348877,273.824219 
	C716.981567,272.129211 706.832947,266.738495 701.337646,254.850586 
	C698.370667,248.432129 697.042725,241.630951 697.841980,234.248810 
	C702.283447,233.085953 706.757324,233.686569 711.178833,233.769608 
	C713.945984,233.821564 714.144104,236.258499 714.179138,238.170212 
	C714.507996,256.121094 732.519897,263.730103 748.646057,257.878113 
	C753.371643,256.163269 757.010437,252.849655 758.735901,248.067169 
	C763.004761,236.235748 761.708374,223.216721 748.188293,216.609985 
	C737.878540,211.572021 727.232971,207.215546 717.289673,201.421341 
	C704.092834,193.731339 697.182861,179.194458 699.922485,164.636322 
	C702.952271,148.536499 712.521362,139.402176 728.805725,136.527344 
	C736.838501,135.109253 744.727478,135.095978 752.407104,137.800262 
	C766.775818,142.860046 773.161194,154.089157 775.301025,168.383881 
	C775.593933,170.340424 775.645630,172.333084 775.855896,174.877457 
	C770.893860,175.801529 765.965027,175.326248 761.068237,175.221039 
	C759.444946,175.186157 758.898865,174.030930 758.685669,172.541916 
	C758.403748,170.573807 758.112244,168.582153 757.546204,166.683685 
	C753.813599,154.163239 746.204590,149.856873 735.478577,150.828735 
	C722.671570,151.989151 715.868713,159.652023 716.408081,170.801788 
	C716.754517,177.964081 719.510010,183.960617 725.968201,187.884766 
	C733.526978,192.477646 741.477051,196.267761 749.888672,199.993073 
z"/>
<path fill="#000000" opacity="1.000000" stroke="none" 
	d="
M283.000061,308.665955 
	C443.328827,308.650421 603.157593,308.634857 762.986328,308.623505 
	C766.319336,308.623291 769.654968,308.600555 772.984558,308.720947 
	C775.464661,308.810730 777.113708,310.096069 777.230835,312.696716 
	C777.356628,315.489746 775.838928,317.054443 773.091431,317.311493 
	C771.602844,317.450745 770.094055,317.391388 768.594360,317.391388 
	C591.932739,317.391602 415.271179,317.394073 238.609604,317.350128 
	C235.015991,317.349213 229.820816,318.645477 229.956894,312.788818 
	C230.083679,307.332184 235.112976,308.748322 238.501785,308.721375 
	C253.167099,308.604706 267.833832,308.668304 283.000061,308.665955 
z"/>
<path fill="#000000" opacity="1.000000" stroke="none" 
	d="
M537.179321,272.248962 
	C520.843445,266.323730 515.500671,253.411240 514.775085,238.007584 
	C514.203308,225.869781 514.499573,213.680756 514.703369,201.519394 
	C514.946533,187.008621 523.867004,174.278687 536.522827,169.835281 
	C551.385315,164.617126 568.358704,168.315857 577.391602,179.015976 
	C582.989441,185.647049 584.884888,193.757812 585.290100,202.189484 
	C585.577698,208.174774 585.109314,214.197540 585.425842,220.179916 
	C585.665161,224.702621 584.185913,226.319290 579.520935,226.239288 
	C565.194214,225.993652 550.857849,226.314484 536.530823,226.076141 
	C531.842834,225.998138 529.848389,227.282349 530.252869,232.244568 
	C530.616272,236.703949 530.262634,241.200180 531.554321,245.594543 
	C535.453918,258.860840 551.208435,264.472748 562.717834,256.743134 
	C566.645508,254.105316 568.459106,250.234329 569.241821,245.942093 
	C569.873352,242.479111 571.657471,241.505875 574.762390,241.833817 
	C574.927124,241.851196 575.095459,241.837387 575.262085,241.835022 
	C586.460632,241.676208 587.196716,242.848495 583.391479,253.709427 
	C577.268250,271.186371 560.219421,275.777863 544.829407,274.001434 
	C542.378479,273.718506 539.987610,272.915649 537.179321,272.248962 
M530.384399,201.957230 
	C530.370300,203.789062 530.540527,205.644806 530.306580,207.448120 
	C529.665466,212.390549 531.915588,213.897736 536.607910,213.707458 
	C543.424927,213.431030 550.264832,213.774673 557.089172,213.612640 
	C571.430176,213.272079 570.142517,216.857132 569.456482,199.879074 
	C568.717285,181.584808 552.471436,177.195755 539.728760,184.253036 
	C533.112122,187.917557 531.753906,194.484512 530.384399,201.957230 
z"/>
<path fill="#000000" opacity="1.000000" stroke="none" 
	d="
M269.649780,226.998596 
	C270.142303,215.711960 268.599182,204.866470 270.636230,194.121994 
	C273.546753,178.770248 286.790405,167.844879 302.464691,167.601532 
	C312.950012,167.438766 322.643616,169.060394 330.362396,177.060104 
	C335.714111,182.606583 337.950073,189.465500 339.252991,196.745804 
	C340.727356,204.984055 340.241028,213.329498 340.384308,221.644043 
	C340.446228,225.236237 338.922760,226.211060 335.602539,226.186722 
	C321.771729,226.085281 307.939667,226.165390 294.108063,226.160355 
	C283.890289,226.156647 285.485962,225.784027 285.351929,235.128143 
	C285.301788,238.622971 285.335480,242.078827 286.320129,245.514175 
	C288.762726,254.036453 296.173645,260.168610 304.379089,260.230682 
	C314.501678,260.307281 320.978455,255.901352 323.628906,246.239380 
	C324.808685,241.938583 327.256073,241.545914 330.895935,241.587036 
	C341.664368,241.708725 341.581635,241.585083 338.593750,252.115234 
	C333.349182,270.598633 316.304108,275.902283 299.794617,273.974579 
	C279.586426,271.615051 270.110748,257.045105 269.661652,237.496902 
	C269.585114,234.165695 269.650238,230.831207 269.649780,226.998596 
M323.827362,196.609833 
	C322.878387,189.374268 319.217651,183.823090 312.145111,181.987289 
	C304.744873,180.066452 297.343536,180.406525 291.392578,186.640320 
	C284.531403,193.827560 285.126160,202.665756 285.502167,211.478348 
	C285.585419,213.430527 287.277649,213.628250 288.849579,213.628265 
	C299.644409,213.628387 310.439240,213.614197 321.234070,213.621384 
	C323.475494,213.622879 324.686859,212.594147 324.607574,210.312668 
	C324.458221,206.017654 325.221069,201.683075 323.827362,196.609833 
z"/>
<path fill="#000000" opacity="1.000000" stroke="none" 
	d="
M428.478851,210.235138 
	C419.148956,188.773514 431.685333,168.892105 454.955109,167.672272 
	C461.123688,167.348907 467.212311,167.713120 473.184448,169.638641 
	C484.630676,173.329147 490.370239,181.549637 492.196808,192.996750 
	C492.378632,194.136124 492.620300,195.785263 491.530426,196.217361 
	C487.547668,197.796494 483.330170,197.017761 479.214600,196.789383 
	C476.336731,196.629684 476.357849,193.916443 475.754303,191.945236 
	C473.046722,183.102158 465.472595,179.422424 453.887329,181.393600 
	C445.356384,182.845093 440.770691,188.799515 441.344574,197.714294 
	C441.609650,201.831284 443.673279,204.864731 447.030121,207.150742 
	C451.948730,210.500290 457.716431,211.664078 463.213928,213.520279 
	C466.835419,214.743042 470.527222,215.766739 474.115326,217.077316 
	C489.890503,222.839340 495.113617,230.531372 494.332977,246.666519 
	C493.691498,259.924774 485.526306,269.459534 470.953217,272.841431 
	C456.108887,276.286285 442.107910,274.933685 430.946198,263.002045 
	C426.309906,258.045990 424.883545,251.685425 423.913086,245.214539 
	C423.584412,243.022934 424.842682,242.152863 426.793732,242.096695 
	C429.623260,242.015228 432.457703,242.096313 435.286469,242.001144 
	C438.501007,241.892975 439.929596,243.176666 440.442474,246.559067 
	C441.575348,254.030823 447.239685,259.269592 454.784668,260.561615 
	C464.601013,262.242584 473.052673,259.181549 476.815002,252.582672 
	C481.391205,244.556152 478.999390,236.158936 470.878571,232.008667 
	C463.131470,228.049393 454.538696,226.438385 446.478119,223.344086 
	C439.431580,220.639038 432.485626,217.780960 428.478851,210.235138 
z"/>
<path fill="#000000" opacity="1.000000" stroke="none" 
	d="
M197.027817,139.638611 
	C218.180756,139.638962 238.840103,139.757706 259.496185,139.550552 
	C264.108917,139.504303 265.559509,141.007141 265.397614,145.544250 
	C264.993805,156.864319 266.644989,155.203232 255.484314,155.364624 
	C250.320816,155.439301 245.142548,155.606384 239.994797,155.313110 
	C235.611465,155.063400 234.234222,156.677383 234.260193,161.050095 
	C234.420471,188.038040 234.337921,215.027420 234.336594,242.016327 
	C234.336182,250.512833 234.209686,259.012146 234.397415,267.504517 
	C234.478012,271.150085 233.256195,272.527588 229.527588,272.437439 
	C214.666672,272.078125 216.860519,274.274536 216.812408,260.263336 
	C216.699692,227.443878 216.668884,194.623245 216.859833,161.804565 
	C216.888641,156.853027 215.653824,154.923584 210.453430,155.264679 
	C203.984695,155.688919 197.463806,155.249832 190.969269,155.377716 
	C187.736420,155.441376 186.339294,154.154007 186.664398,150.954346 
	C186.714630,150.460083 186.655365,149.955444 186.661240,149.455795 
	C186.794449,138.147964 185.431168,139.830109 197.027817,139.638611 
z"/>
<path fill="#000000" opacity="1.000000" stroke="none" 
	d="
M636.656860,224.999908 
	C636.657715,203.350418 636.562500,182.200119 636.739685,161.052124 
	C636.775940,156.728622 635.486267,155.132996 631.049316,155.294540 
	C623.066711,155.585098 615.064392,155.284897 607.072571,155.395645 
	C603.941956,155.439011 602.578796,154.383881 602.626953,151.080444 
	C602.827515,137.301407 601.243958,139.758286 613.393066,139.680145 
	C635.707336,139.536652 658.024780,139.779068 680.337280,139.533585 
	C685.271423,139.479324 686.600708,141.100769 686.426453,145.814392 
	C686.022766,156.730667 687.489624,155.248627 676.708374,155.363388 
	C670.880554,155.425430 665.035645,155.621155 659.227783,155.270935 
	C654.653564,154.995117 653.228088,156.487411 653.252563,161.156784 
	C653.434265,195.794342 653.352661,230.433319 653.347961,265.071838 
	C653.346985,272.375519 653.335876,272.415863 645.970459,272.372162 
	C635.398743,272.309387 636.726685,273.304016 636.671875,262.969299 
	C636.605591,250.479843 636.656738,237.989731 636.656860,224.999908 
z"/>
<path fill="#000000" opacity="1.000000" stroke="none" 
	d="
M373.724121,170.933472 
	C376.967926,174.133759 373.691559,178.659225 376.590698,181.772629 
	C378.962952,181.462845 379.872162,179.435715 381.378052,178.229416 
	C389.357819,171.837311 397.880920,167.064362 408.671692,168.607620 
	C410.472961,168.865234 412.140930,169.271500 412.190613,171.360474 
	C412.311859,176.456421 412.230103,181.557190 412.230103,187.182922 
	C405.331268,185.437424 399.189178,184.448883 392.924469,186.696838 
	C382.581512,190.408203 378.285126,196.166718 378.267822,207.117798 
	C378.236755,226.781158 378.124847,246.445923 378.334778,266.107025 
	C378.384003,270.715240 377.346649,272.686646 372.297516,272.477692 
	C360.094391,271.972748 361.743744,273.939880 361.708923,261.754211 
	C361.629822,234.092316 361.682373,206.430038 361.680511,178.767929 
	C361.679962,170.564636 361.678680,170.560196 369.777100,170.659714 
	C370.941956,170.674026 372.106049,170.755112 373.724121,170.933472 
z"/>
</svg>